<svg xmlns="http://www.w3.org/2000/svg" viewBox="0 0 52.22 46.64"><defs><style>.cls-1{fill:#f3f4f5;}</style></defs><title>a</title><g id="Layer_2" data-name="Layer 2"><g id="Layer_1-2" data-name="Layer 1"><path class="cls-1" d="M1,32.73H6.43C2.55,29.23,0,24.41,0,17.41,0,7.85,5.49,0,15.52,0h.18C26.77,0,31.88,8.42,31.88,20.43a36.09,36.09,0,0,1-2.08,12.4h.85c6,0,9.27-3.69,9.27-10.88A37.31,37.31,0,0,0,37.18,8l11-3.6A44.74,44.74,0,0,1,52.22,24c0,15.7-8.13,22.61-21.85,22.61H1ZM21.38,33a22.24,22.24,0,0,0,1.89-9.18c0-6.15-2.46-9.93-7-9.93h-.19c-3.88,0-6.15,3.21-6.15,7.85,0,6.72,3.69,11.26,8.9,11.26Z"/></g></g></svg>